<?xml version="1.0" encoding="UTF-8" standalone="no"?><!DOCTYPE svg PUBLIC "-//W3C//DTD SVG 1.1//EN" "http://www.w3.org/Graphics/SVG/1.1/DTD/svg11.dtd"><svg width="100%" height="100%" viewBox="0 0 960 325" version="1.1" xmlns="http://www.w3.org/2000/svg" xmlns:xlink="http://www.w3.org/1999/xlink" xml:space="preserve" xmlns:serif="http://www.serif.com/" style="fill-rule:evenodd;clip-rule:evenodd;stroke-linecap:round;stroke-linejoin:round;stroke-miterlimit:1.5;"><rect x="126.25" y="27.5" width="707.5" height="220" style="fill:#282828;"/><rect x="126.25" y="27.5" width="707.5" height="29" style="fill:#5a5a5a;"/><rect x="128.25" y="29.5" width="44.5" height="25" style="fill:#3c3c3c;"/><rect x="175.25" y="29.5" width="66.5" height="25" style="fill:#3c3c3c;"/><rect x="244.25" y="29.525" width="54.5" height="25" style="fill:#3c3c3c;"/><rect x="735.25" y="29.5" width="96" height="25" style="fill:#3c3c3c;"/><rect x="772.518" y="219.5" width="58.732" height="25" style="fill:#3c3c3c;"/><rect x="627.75" y="29.5" width="105" height="25" style="fill:#3c3c3c;"/><rect x="128.75" y="220.326" width="641.063" height="25" style="fill:#fff;"/><rect x="303" y="29.55" width="320.25" height="25" style="fill:#fff;"/><text x="133.748px" y="46.137px" style="font-family:'LucidaGrande', 'Lucida Grande', sans-serif;font-weight:500;font-size:12px;fill:#fff;">Close</text><rect x="128.5" y="250.022" width="53" height="25" style="fill:#3c3c3c;"/><text x="134.046px" y="266.252px" style="font-family:'LucidaGrande', 'Lucida Grande', sans-serif;font-weight:500;font-size:12px;fill:#fff;">Inspect</text><text x="130.546px" y="236.806px" style="font-family:'LucidaGrande', 'Lucida Grande', sans-serif;font-weight:500;font-size:14px;fill:#282828;">Inspect</text><rect x="184" y="250.022" width="124.998" height="25" style="fill:#3c3c3c;"/><text x="189.546px" y="266.252px" style="font-family:'LucidaGrande', 'Lucida Grande', sans-serif;font-weight:500;font-size:12px;fill:#fff;">InspectGameObject</text><rect x="312.166" y="250.022" width="192" height="25" style="fill:#3c3c3c;"/><text x="317.046px" y="266.252px" style="font-family:'LucidaGrande', 'Lucida Grande', sans-serif;font-weight:500;font-size:12px;fill:#fff;">InspectGameObjectComponent</text><text x="180.748px" y="46.137px" style="font-family:'LucidaGrande', 'Lucida Grande', sans-serif;font-weight:500;font-size:12px;fill:#fff;">Maximise</text><text x="249.748px" y="46.137px" style="font-family:'LucidaGrande', 'Lucida Grande', sans-serif;font-weight:500;font-size:12px;fill:#fff;">Disable</text><text x="740.75px" y="46.137px" style="font-family:'LucidaGrande', 'Lucida Grande', sans-serif;font-weight:500;font-size:12px;fill:#fff;">All Commands</text><text x="779.001px" y="236.257px" style="font-family:'LucidaGrande', 'Lucida Grande', sans-serif;font-weight:500;font-size:12px;fill:#fff;">Execute</text><text x="633.25px" y="46.137px" style="font-family:'LucidaGrande', 'Lucida Grande', sans-serif;font-weight:500;font-size:12px;fill:#fff;">Filters Active : 0</text><text x="128.753px" y="68.849px" style="font-family:'LucidaGrande', 'Lucida Grande', sans-serif;font-weight:500;font-size:10px;fill:#fff;">[DevelopmentConsole] Loading</text><text x="128.753px" y="82.849px" style="font-family:'LucidaGrande', 'Lucida Grande', sans-serif;font-weight:500;font-size:10px;fill:#fff;">[DevelopmentConsole] Registering Commands</text><text x="128.753px" y="96.849px" style="font-family:'LucidaGrande', 'Lucida Grande', sans-serif;font-weight:500;font-size:10px;fill:#fff;">[DevelopmentConsole] Applying Settings</text><rect x="122.5" y="58.582" width="715" height="158.044" style="fill:none;stroke:#fb0d00;stroke-width:1.5px;"/><rect x="122.5" y="249.943" width="715" height="25.986" style="fill:none;stroke:#fb0d00;stroke-width:1.5px;"/><rect x="122.5" y="218.604" width="715" height="27.839" style="fill:none;stroke:#fb0d00;stroke-width:1.5px;"/><rect x="122.5" y="26" width="715" height="29.11" style="fill:none;stroke:#fb0d00;stroke-width:1.5px;"/><path d="M91.65,144.374l0,-1.397l18.076,0l0,-9.226l9.924,9.924l-9.924,9.925l0,-9.226l-18.076,0Z" style="fill:#fb0900;stroke:#fb0d00;stroke-width:1.5px;"/><path d="M91.651,263.123l0,-1.397l18.075,0l0,-9.226l9.925,9.924l-9.925,9.925l0,-9.226l-18.075,0Z" style="fill:#fb0900;stroke:#fb0d00;stroke-width:1.5px;"/><path d="M868.022,237.431l0,1.396l-18.075,0l0,9.227l-9.925,-9.925l9.925,-9.924l0,9.226l18.075,0Z" style="fill:#fb0900;stroke:#fb0d00;stroke-width:1.5px;"/><g transform="matrix(0.5,0,0,0.5,26.1014,21.349)"><text x="75.958px" y="235.691px" style="font-family:'LucidaGrande', 'Lucida Grande', sans-serif;font-weight:500;font-size:28px;fill:#282828;">Log</text><text x="28.844px" y="263.691px" style="font-family:'LucidaGrande', 'Lucida Grande', sans-serif;font-weight:500;font-size:28px;fill:#282828;">History</text></g><g transform="matrix(0.5,0,0,0.5,3.76924,142.95)"><text x="19.279px" y="235.691px" style="font-family:'LucidaGrande', 'Lucida Grande', sans-serif;font-weight:500;font-size:28px;fill:#282828;">Suggestion</text><text x="107.832px" y="263.691px" style="font-family:'LucidaGrande', 'Lucida Grande', sans-serif;font-weight:500;font-size:28px;fill:#282828;">Area</text></g><text x="873.235px" y="243.305px" style="font-family:'LucidaGrande', 'Lucida Grande', sans-serif;font-weight:500;font-size:14px;fill:#282828;">Input Field</text><path d="M868.022,41.431l0,1.396l-18.075,0l0,9.227l-9.925,-9.925l9.925,-9.924l0,9.226l18.075,0Z" style="fill:#fb0900;stroke:#fb0d00;stroke-width:1.5px;"/><text x="873.235px" y="47.805px" style="font-family:'LucidaGrande', 'Lucida Grande', sans-serif;font-weight:500;font-size:14px;fill:#282828;">Action Area</text></svg>